<svg xmlns="http://www.w3.org/2000/svg" width="178.261" height="39.781" viewBox="0 0 178.261 39.781">
  <defs>
    <style>
      .cls-1 {
        fill: #e6a766;
      }
    </style>
  </defs>
  <path id="Path_52" data-name="Path 52" class="cls-1" d="M57.433,89.979v-39h2.117v6.135a8.022,8.022,0,0,0,.691-.864A10.485,10.485,0,0,1,69.8,50.316c4.825-.144,8.742,1.642,11.046,5.934a19.068,19.068,0,0,1,.461,17.484c-2.146,4.81-7.446,7.2-13.12,6.322a10.614,10.614,0,0,1-8.468-5.588V89.979Zm2.117-25.2c.187,1.9.259,3.255.475,4.58.835,5.214,3.917,8.31,8.756,8.872A9.952,9.952,0,0,0,79.713,71.9a16.951,16.951,0,0,0-.374-13.941A9.75,9.75,0,0,0,69.07,52.289,9.491,9.491,0,0,0,60.588,59.3a48.1,48.1,0,0,0-1.037,5.473Zm66.839,5.3a11.406,11.406,0,0,1-11.147,10.081c-8.872.446-13.034-5.444-13.7-12.242a19.615,19.615,0,0,1,1.728-10.8,12.054,12.054,0,0,1,12.544-6.726,11.522,11.522,0,0,1,10.225,8.771,59.175,59.175,0,0,1,.994,6.481H103.721c-.432,6.164,2.88,11.118,7.575,12.314,5.847,1.44,10.845-1.095,12.659-6.654C124.359,69.874,125.094,69.672,126.39,70.076Zm-22.669-6.409h20.84c-.13-6.567-4.22-11.32-9.765-11.392C108.517,52.174,103.995,56.754,103.721,63.667Zm26.96,6.553h2.045a8.2,8.2,0,0,0,4.81,7.057,12.573,12.573,0,0,0,10.917-.288,4.911,4.911,0,0,0,2.88-4.825,4.45,4.45,0,0,0-3-4.45c-2.247-.835-4.637-1.3-6.927-2.031a50.768,50.768,0,0,1-6.971-2.549c-3.687-1.8-3.917-8.814.259-11.032a14.7,14.7,0,0,1,14.056-.216,7.4,7.4,0,0,1,3.745,7.547h-1.757c0-.086-.158-.158-.158-.245-.216-5.6-4.911-7.331-9.952-6.841a13.206,13.206,0,0,0-4.321,1.311,4.612,4.612,0,0,0,.374,8.382c2.218.806,4.537,1.325,6.812,1.959,1.829.5,3.73.835,5.5,1.44a6.5,6.5,0,0,1,4.465,5.862,6.927,6.927,0,0,1-3.73,7.2c-4.81,2.722-12.731,2-16.26-1.44a9.606,9.606,0,0,1-2.794-6.841Zm48.707-10.787h-1.915a4.75,4.75,0,0,0-.13-.706,6.265,6.265,0,0,0-5.1-6.02,12.573,12.573,0,0,0-8.079.389,4.911,4.911,0,0,0-3.557,4.681,4.522,4.522,0,0,0,3.456,4.551c2.88.893,5.833,1.44,8.756,2.247a24.484,24.484,0,0,1,2.794.85A7.2,7.2,0,0,1,176,78.832a16.029,16.029,0,0,1-12.962.13,8.987,8.987,0,0,1-5.415-8.728H159.5a10.5,10.5,0,0,0,15.986,6.683,5.141,5.141,0,0,0,2.765-4.81,4.45,4.45,0,0,0-3.039-4.421c-2.247-.835-4.637-1.282-6.927-2.016a51.026,51.026,0,0,1-7.014-2.52c-3.6-1.771-3.889-8.728.216-10.945a14.5,14.5,0,0,1,14.287-.158A7.532,7.532,0,0,1,179.389,59.432ZM53.934,79.451a3.3,3.3,0,0,1-4.09-1.555c-2.348-3.514-4.94-6.87-7.431-10.3l-1.08-1.44C38.365,70.133,35.4,73.95,32.691,77.91A3.168,3.168,0,0,1,28.8,79.437L39.935,64.5,29.58,51.007a3.442,3.442,0,0,1,4.1,1.44c2.405,3.514,5.069,6.87,7.719,10.427,2.664-3.528,5.3-6.9,7.763-10.384a3.1,3.1,0,0,1,3.86-1.44l-4.018,5.329c-1.8,2.376-3.572,4.767-5.444,7.086a1.44,1.44,0,0,0,0,2.146C47.006,70.176,50.42,74.756,53.934,79.451ZM101.2,50.863V52.88A10.441,10.441,0,0,0,90.083,63.667q0,7.115,0,14.229v1.613H88.023V50.979h2.016v5.847C92.531,52.563,96.376,50.979,101.2,50.863ZM2.13,64.315c.3-1.44.49-3.01.907-4.479,2.492-8.857,12.645-12.544,19.63-7.057,4.09,3.212,5.113,7.763,4.911,12.89H4.535c-.374,9.16,6.236,14.69,14.69,11.867A8.771,8.771,0,0,0,24.8,71.328c.446-1.44,1.167-1.685,2.535-1.267a11.694,11.694,0,0,1-5.588,8.54,13.538,13.538,0,0,1-15.77-2.016,14.186,14.186,0,0,1-3.543-8.324,6.9,6.9,0,0,0-.288-1.44Q2.13,65.539,2.13,64.315ZM4.564,63.7H25.4c-.13-6.639-4.321-11.349-9.909-11.392C9.273,52.217,4.823,56.826,4.55,63.667Z" transform="translate(-2.13 -50.198)"/>
</svg>
