<svg xmlns="http://www.w3.org/2000/svg" width="221.94" height="95.62" viewBox="0 0 221.94 95.62">
  <defs>
    <style>
      .cls-1 {
        fill: #e6a766;
      }
    </style>
  </defs>
  <g id="Group_13" data-name="Group 13" transform="translate(0 0)">
    <g id="handlebars" transform="translate(0 0)">
      <path id="Path_43" data-name="Path 43" class="cls-1" d="M9.039,42.74v8.219A11.817,11.817,0,0,1,11.1,49.042a7.306,7.306,0,0,1,2.228-1.059,9.315,9.315,0,0,1,2.612-.347,7.69,7.69,0,0,1,3.653.895,6.923,6.923,0,0,1,3.434,4.785,17.48,17.48,0,0,1,.2,2.831V66.759a3.653,3.653,0,0,1-.767,2.521,2.575,2.575,0,0,1-2.009.858q-2.74,0-2.74-3.361v-9.37a8.566,8.566,0,0,0-.785-4.091,3.123,3.123,0,0,0-3-1.425,4.493,4.493,0,0,0-2.667.84,5.078,5.078,0,0,0-1.827,2.3A14.776,14.776,0,0,0,9,59.434v7.306a3.653,3.653,0,0,1-.749,2.5,2.557,2.557,0,0,1-2.009.877q-2.74,0-2.74-3.361V42.74a3.8,3.8,0,0,1,.712-2.521,2.521,2.521,0,0,1,2.027-.84,2.575,2.575,0,0,1,2.064.858,3.653,3.653,0,0,1,.731,2.5ZM42.775,67a17.115,17.115,0,0,1-3.89,2.338,10.959,10.959,0,0,1-4.2.785,7.964,7.964,0,0,1-3.653-.84A6.155,6.155,0,0,1,28.547,67a5.918,5.918,0,0,1-.877-3.123A5.589,5.589,0,0,1,29.113,60a7.2,7.2,0,0,1,3.945-2.155L35.67,57.3q2.082-.42,3.653-.785t3.233-.858a5.79,5.79,0,0,0-.877-3.215,3.945,3.945,0,0,0-3.452-.95,6.74,6.74,0,0,0-3.178.584A5.187,5.187,0,0,0,33.223,53.9q-.767,1.169-1.078,1.553a1.827,1.827,0,0,1-1.352.384,2.356,2.356,0,0,1-1.607-.6A1.954,1.954,0,0,1,28.51,53.7a4.694,4.694,0,0,1,1.041-2.831A7.4,7.4,0,0,1,32.784,48.6a14.612,14.612,0,0,1,5.48-.895A15.452,15.452,0,0,1,44,48.567a5.352,5.352,0,0,1,2.959,2.722,11.927,11.927,0,0,1,.858,4.95q0,1.954,0,3.306v3.014a11.142,11.142,0,0,0,.438,3.123,10.3,10.3,0,0,1,.511,2.247,2.046,2.046,0,0,1-.8,1.553,2.685,2.685,0,0,1-1.827.694,2.447,2.447,0,0,1-1.68-.8A11.8,11.8,0,0,1,42.775,67Zm-.365-8a27.946,27.946,0,0,1-3.543.95q-2.32.493-3.215.731a4.384,4.384,0,0,0-1.7.913,2.338,2.338,0,0,0-.8,1.827,2.813,2.813,0,0,0,.95,2.137,3.525,3.525,0,0,0,2.5.877,6.484,6.484,0,0,0,3.032-.712,4.8,4.8,0,0,0,2.046-1.827,8.475,8.475,0,0,0,.749-4.128Zm16.019-8.329v.676a9.7,9.7,0,0,1,3.2-2.831,8.512,8.512,0,0,1,3.982-.9,7.945,7.945,0,0,1,3.909.95A6.046,6.046,0,0,1,72,51.27a6.411,6.411,0,0,1,.712,2.192,22.577,22.577,0,0,1,.164,3v10.3a3.653,3.653,0,0,1-.767,2.521,2.74,2.74,0,0,1-3.982,0,3.653,3.653,0,0,1-.767-2.5V57.535a9.224,9.224,0,0,0-.676-4.219,3.105,3.105,0,0,0-3.032-1.443,4.493,4.493,0,0,0-2.612.9,5.078,5.078,0,0,0-1.827,2.374,17.316,17.316,0,0,0-.4,4.621V66.7a3.653,3.653,0,0,1-.785,2.521,2.63,2.63,0,0,1-2.009.84,2.5,2.5,0,0,1-1.973-.877,3.653,3.653,0,0,1-.767-2.5V50.758a3.489,3.489,0,0,1,.694-2.356,2.393,2.393,0,0,1,1.827-.785,2.557,2.557,0,0,1,1.315.347,2.466,2.466,0,0,1,.95,1.041A3.653,3.653,0,0,1,58.429,50.667ZM93.644,66.96v-.548a14.083,14.083,0,0,1-2.192,2.082A8.274,8.274,0,0,1,89.1,69.718a8.84,8.84,0,0,1-2.776.42,8.164,8.164,0,0,1-3.653-.84,8.585,8.585,0,0,1-2.922-2.411,10.959,10.959,0,0,1-1.827-3.653,15.653,15.653,0,0,1-.639-4.566,11.891,11.891,0,0,1,2.539-8.091,8.42,8.42,0,0,1,6.667-2.9,8.968,8.968,0,0,1,4.037.822,11.27,11.27,0,0,1,3.2,2.521V42.831a4.128,4.128,0,0,1,.676-2.575,2.32,2.32,0,0,1,1.936-.877,2.393,2.393,0,0,1,1.936.8,3.653,3.653,0,0,1,.676,2.356V66.96a3.4,3.4,0,0,1-.731,2.374,2.448,2.448,0,0,1-1.827.785,2.411,2.411,0,0,1-1.827-.822A3.379,3.379,0,0,1,93.644,66.96ZM82.685,58.832a9.425,9.425,0,0,0,.694,3.836,5.333,5.333,0,0,0,1.827,2.374,4.731,4.731,0,0,0,2.648.8,4.9,4.9,0,0,0,2.667-.767,5.224,5.224,0,0,0,1.918-2.338,9.425,9.425,0,0,0,.9-3.945,9.133,9.133,0,0,0-.712-3.8,5.717,5.717,0,0,0-1.954-2.429,4.658,4.658,0,0,0-2.685-.84,4.53,4.53,0,0,0-2.722.858,5.479,5.479,0,0,0-1.827,2.466,9.845,9.845,0,0,0-.676,3.744Zm21.736,7.927V42.74a3.653,3.653,0,0,1,.749-2.521,2.5,2.5,0,0,1,1.991-.858,2.612,2.612,0,0,1,2.027.84,3.653,3.653,0,0,1,.767,2.521V66.759a3.653,3.653,0,0,1-.785,2.521,2.63,2.63,0,0,1-2.009.84,2.5,2.5,0,0,1-1.973-.877A3.653,3.653,0,0,1,104.42,66.759Zm26.722-6.539H120.311a7.306,7.306,0,0,0,.767,3.324,5.078,5.078,0,0,0,4.676,2.9,6.649,6.649,0,0,0,1.827-.237,5.9,5.9,0,0,0,1.589-.731,12.053,12.053,0,0,0,1.425-1.059q.658-.566,1.68-1.534a1.827,1.827,0,0,1,1.224-.365,2.009,2.009,0,0,1,1.37.475,1.662,1.662,0,0,1,.53,1.315,3.653,3.653,0,0,1-.584,1.827,6.959,6.959,0,0,1-1.827,1.918,10.064,10.064,0,0,1-2.977,1.534,12.786,12.786,0,0,1-4.128.6,10.959,10.959,0,0,1-8.219-3.123,11.324,11.324,0,0,1-3.014-8.274,13.753,13.753,0,0,1,.731-4.548,10.046,10.046,0,0,1,2.137-3.653,9.242,9.242,0,0,1,3.452-2.3,12.366,12.366,0,0,1,4.548-.8,10.777,10.777,0,0,1,5.48,1.37,9,9,0,0,1,3.47,3.543,9.315,9.315,0,0,1,1.224,4.566q0,2.082-1.187,2.7a7.452,7.452,0,0,1-3.361.548Zm-10.831-3.142h10.046a6.722,6.722,0,0,0-1.534-4.256,4.585,4.585,0,0,0-3.507-1.333,4.438,4.438,0,0,0-3.4,1.425,7.123,7.123,0,0,0-1.607,4.164Zm24.6-14.539V51a12.786,12.786,0,0,1,3.178-2.484,8.493,8.493,0,0,1,4.018-.858,8.877,8.877,0,0,1,4.84,1.315,8.585,8.585,0,0,1,3.233,3.8,13.955,13.955,0,0,1,1.151,5.881,15.763,15.763,0,0,1-.639,4.621,10.959,10.959,0,0,1-1.827,3.653A8.384,8.384,0,0,1,155.91,69.3a8.64,8.64,0,0,1-3.817.84,9.132,9.132,0,0,1-2.429-.384,7,7,0,0,1-1.827-.8,8.585,8.585,0,0,1-1.352-1.023,19.614,19.614,0,0,1-1.461-1.589v.548a3.343,3.343,0,0,1-.749,2.356,2.5,2.5,0,0,1-1.827.8,2.375,2.375,0,0,1-1.827-.8,3.507,3.507,0,0,1-.694-2.356V42.795a4.055,4.055,0,0,1,.676-2.539,2.283,2.283,0,0,1,1.827-.858,2.429,2.429,0,0,1,1.973.822A3.544,3.544,0,0,1,144.914,42.539Zm.256,16.439a7.617,7.617,0,0,0,1.516,5.078,4.95,4.95,0,0,0,3.964,1.827,4.548,4.548,0,0,0,3.653-1.827,7.927,7.927,0,0,0,1.461-5.26,10.192,10.192,0,0,0-.621-3.653,5.479,5.479,0,0,0-1.827-2.448,4.384,4.384,0,0,0-2.7-.858,4.8,4.8,0,0,0-2.813.858,5.735,5.735,0,0,0-1.9,2.448A9.7,9.7,0,0,0,145.188,59ZM179.764,67a17.115,17.115,0,0,1-3.89,2.338,10.959,10.959,0,0,1-4.2.785,7.964,7.964,0,0,1-3.653-.84A6.155,6.155,0,0,1,165.536,67a5.918,5.918,0,0,1-.877-3.123A5.589,5.589,0,0,1,166.1,60a7.2,7.2,0,0,1,3.945-2.155l2.612-.548q2.082-.42,3.653-.785t3.233-.858a5.79,5.79,0,0,0-.877-3.215,3.945,3.945,0,0,0-3.4-.95,6.74,6.74,0,0,0-3.178.584,5.187,5.187,0,0,0-1.827,1.827q-.767,1.169-1.078,1.553a1.827,1.827,0,0,1-1.352.384,2.356,2.356,0,0,1-1.589-.694,1.954,1.954,0,0,1-.676-1.534,4.694,4.694,0,0,1,1.041-2.831,7.4,7.4,0,0,1,3.233-2.265,14.612,14.612,0,0,1,5.48-.9,15.453,15.453,0,0,1,5.735.858A5.352,5.352,0,0,1,184.02,51.2a11.927,11.927,0,0,1,.858,4.95v6.32a11.142,11.142,0,0,0,.511,3.251,10.3,10.3,0,0,1,.511,2.174,2.046,2.046,0,0,1-.8,1.553,2.685,2.685,0,0,1-1.827.694,2.447,2.447,0,0,1-1.68-.8A11.8,11.8,0,0,1,179.764,67Zm-.365-8a27.947,27.947,0,0,1-3.543.95q-2.32.493-3.215.731a4.384,4.384,0,0,0-1.7.913,2.338,2.338,0,0,0-.8,1.827,2.813,2.813,0,0,0,.95,2.137,3.525,3.525,0,0,0,2.5.877,6.484,6.484,0,0,0,3.032-.712,4.8,4.8,0,0,0,2.046-1.827,8.475,8.475,0,0,0,.749-4.128Zm16.53,3.142v4.621a3.653,3.653,0,0,1-.785,2.521,2.63,2.63,0,0,1-2.009.84,2.539,2.539,0,0,1-1.973-.858,3.653,3.653,0,0,1-.767-2.521v-15.4q0-3.653,2.7-3.653a2.247,2.247,0,0,1,1.991.877,4.785,4.785,0,0,1,.676,2.575,9.7,9.7,0,0,1,2.046-2.575,4.2,4.2,0,0,1,2.795-.877,7.123,7.123,0,0,1,3.379.877,2.612,2.612,0,0,1,1.644,2.32,2.311,2.311,0,0,1-2.21,2.338,6.958,6.958,0,0,1-1.461-.384,6.831,6.831,0,0,0-2.064-.384,3.014,3.014,0,0,0-1.991.639,4.091,4.091,0,0,0-1.206,1.827,13.188,13.188,0,0,0-.584,3A40.876,40.876,0,0,0,195.929,62.138Zm29.5.749a6.411,6.411,0,0,1-4.42,6.393,14.758,14.758,0,0,1-5.3.84,12.932,12.932,0,0,1-5.114-.913,7.434,7.434,0,0,1-3.142-2.283,4.6,4.6,0,0,1-1-2.74,2.137,2.137,0,0,1,.639-1.553,2.228,2.228,0,0,1,1.644-.639,1.827,1.827,0,0,1,1.333.42,4.694,4.694,0,0,1,.895,1.206,6.064,6.064,0,0,0,2.046,2.21,6.155,6.155,0,0,0,3.233.731,4.676,4.676,0,0,0,2.721-.749,2.082,2.082,0,0,0,1.059-1.7,2.3,2.3,0,0,0-1.114-2.137,13.68,13.68,0,0,0-3.653-1.279,30.065,30.065,0,0,1-4.658-1.5,7.635,7.635,0,0,1-2.868-2.064,4.712,4.712,0,0,1-1.078-3.142,5.48,5.48,0,0,1,.986-3.142,6.813,6.813,0,0,1,2.922-2.356,11.215,11.215,0,0,1,4.676-.877,15.362,15.362,0,0,1,3.854.438,9.626,9.626,0,0,1,2.868,1.206,5.918,5.918,0,0,1,1.827,1.662,3.251,3.251,0,0,1,.6,1.827,2.064,2.064,0,0,1-.639,1.553,2.521,2.521,0,0,1-1.827.6,2.228,2.228,0,0,1-1.443-.493,9.554,9.554,0,0,1-1.37-1.461,5.023,5.023,0,0,0-1.479-1.3,4.658,4.658,0,0,0-2.32-.493,4.53,4.53,0,0,0-2.5.639,1.827,1.827,0,0,0-.986,1.589,1.717,1.717,0,0,0,.731,1.425,6.046,6.046,0,0,0,1.973.913q1.242.365,3.4.895a18.265,18.265,0,0,1,4.2,1.5,7,7,0,0,1,2.466,2.064,4.566,4.566,0,0,1,.84,2.7Z" transform="translate(-3.494 -39.359)"/>
    </g>
    <path id="Path_44" data-name="Path 44" class="cls-1" d="M38.276,88.232A8.859,8.859,0,0,0,41.144,83.9a5.114,5.114,0,0,0-2.868-6.575c-8.4-4.256-13.827,3.324-14.612,5.1s-2.174,4.566-1.3,10.959,3.964,12.292,13.608,14.612a40.859,40.859,0,0,0,27.4-3.2c8.512-4.055,24.475-11.178,28.512-11.891a34.959,34.959,0,0,1,8.055-1V82.186A22.3,22.3,0,0,0,78.35,70.825c-15.4,1.206-21.516,9.133-25.261,12.53s-10.7,11.4-15.361,9.991-5.973-7.16-4.329-8.932,2.941-1.461,3.964,0a7.744,7.744,0,0,1,.913,3.817Z" transform="translate(11.873 -13.433)"/>
    <path id="Path_45" data-name="Path 45" class="cls-1" d="M126.073,88.232a8.859,8.859,0,0,1-2.868-4.329,5.114,5.114,0,0,1,2.868-6.576c8.4-4.256,13.827,3.324,14.612,5.1s2.174,4.566,1.3,10.959-3.964,12.292-13.608,14.612a40.86,40.86,0,0,1-27.4-3.2C92.465,100.743,76.5,93.62,72.465,92.908a34.958,34.958,0,0,0-8.055-1V82.186A22.3,22.3,0,0,1,86,70.825c15.4,1.206,21.516,9.133,25.261,12.53s10.7,11.4,15.361,9.991,5.973-7.16,4.329-8.932-2.941-1.461-3.964,0A7.744,7.744,0,0,0,126.073,88.232Z" transform="translate(46.855 -13.433)"/>
  </g>
</svg>
