<svg xmlns="http://www.w3.org/2000/svg" width="94.158" height="107.158" viewBox="0 0 94.158 107.158">
  <defs>
    <style>
      .cls-1 {
        fill: #e6a766;
      }
    </style>
  </defs>
  <g id="Group_17" data-name="Group 17" transform="translate(0 0)">
    <path id="Path_64" data-name="Path 64" class="cls-1" d="M64.617,18.938l-.005.005A8.9,8.9,0,1,1,50.165,12.01l.02-.015.035-.035c.283-.212.6-.424.919-.631,0,0,.04,0,.04-.035.141-.071.283-.177.424-.252.035,0,.071-.03.106-.03.141-.071.318-.141.495-.212s.359-.136.5-.207c.035,0,.066-.035.1-.035.141-.035.283-.106.429-.141.035,0,.1-.035.141-.035.172-.035.318-.071.495-.1h.035l.53-.111a.219.219,0,0,0,.141-.035c.141,0,.283-.035.424-.035h.172c.177,0,.359-.035.566-.035h.46a1.487,1.487,0,0,1,.394.035h.071a7.077,7.077,0,0,1,.848.141A8.952,8.952,0,0,1,64.617,18.938Zm-54.4-.03v-.025a8.812,8.812,0,0,1,6.655-8.519l.061-.015v-.005l.495-.1h.1l.424-.076h.141l.389-.035h1.379l.353.035.177.035.389.071.141.035.495.1h.035l.419.146.141.035.353.136.106.035.424.177h.035l.46.252-.005-.005h.035l.424.242.066.035.394.247.035.035,1.2,1.015.035.035a8.766,8.766,0,0,1,2.444,6.075v.035a8.921,8.921,0,0,1-17.825.015v-.015Z" transform="translate(29.152 33.724)"/>
    <path id="Path_65" data-name="Path 65" class="cls-1" d="M2.883,38.9c.848-5.125,3.217-9.933,5.484-14.528l.389-.808a13.61,13.61,0,0,0,2.439.636C9.851,31.639,13.669,39.32,21.1,43.112l1.343.7,1.449-.525A48.352,48.352,0,0,0,40.876,32.836a47.512,47.512,0,0,0,7.241-8.488l.116-.177a14.7,14.7,0,0,0,2.444.172A15.85,15.85,0,0,0,65.963,12.7l.025-.111h5.943a15.837,15.837,0,0,0,15.315,11.75h.005a15.822,15.822,0,0,0,7.994-2.171,15.822,15.822,0,0,1,.707,8.1h.005a15.59,15.59,0,0,1-7.6,10.73l-.071.04c-3.858,2.212-8.6,2.914-13.589,3.616a88.1,88.1,0,0,0-8.948,1.586l.6-.116c-7.357,1.793-14.427,5.3-21.289,8.67C36.281,59.114,28,63.184,20.334,63.184h-.126A18.593,18.593,0,0,1,9.336,59.7C1.575,54.357,1.959,44.369,2.883,38.9Z" transform="translate(-2.4 43.974)"/>
    <path id="Path_66" data-name="Path 66" class="cls-1" d="M50.873,10.075h-.838l-.389.035H49.5l-.424.076h-.1l-.495.1v.005l-.061.015a8.806,8.806,0,0,0-6.655,8.519v.04A8.887,8.887,0,0,0,50.681,27.4h.2V10.075ZM8.754,33.758l-.389.808c-2.267,4.6-4.63,9.4-5.484,14.528C1.962,54.562,1.573,64.55,9.339,69.883a18.593,18.593,0,0,0,10.872,3.484h.116c7.67,0,15.947-4.065,24.723-8.382,1.924-.944,3.863-1.9,5.822-2.823V34.525h-.2a14.7,14.7,0,0,1-2.444-.172l-.116.177a47.162,47.162,0,0,1-7.241,8.488A48.324,48.324,0,0,1,23.887,53.471l-1.444.535L21.1,53.3c-7.433-3.792-11.251-11.473-9.907-18.911a13.609,13.609,0,0,1-2.439-.636Z" transform="translate(-2.399 33.781)"/>
    <path id="Path_67" data-name="Path 67" class="cls-1" d="M11.781,10.068A8.845,8.845,0,1,1,2.868,18.92a8.887,8.887,0,0,1,8.913-8.852Z" transform="translate(-0.507 33.752)"/>
    <path id="Path_68" data-name="Path 68" class="cls-1" d="M11.781,10.068a8.845,8.845,0,1,0,0,17.689V10.068Zm73.593,0a8.845,8.845,0,1,0,0,17.689V10.068Z" transform="translate(-0.507 33.752)"/>
    <path id="Path_69" data-name="Path 69" class="cls-1" d="M10.028,1.39H65.67L52.894,38.757a12.236,12.236,0,0,0-1.586.454L37.872,12.019,24.389,39.035a13.568,13.568,0,0,0-1.666-.384L10.028,1.39Z" transform="translate(28.488 -1.39)"/>
    <path id="Path_70" data-name="Path 70" class="cls-1" d="M37.846,1.39H10.028L22.723,38.651a13.567,13.567,0,0,1,1.666.384L37.851,12.06V1.39Z" transform="translate(28.488 -1.39)"/>
  </g>
</svg>
