<svg xmlns="http://www.w3.org/2000/svg" width="185.418" height="188.467" viewBox="0 0 185.418 188.467">
  <defs>
    <style>
      .cls-1 {
        fill: #e6a766;
        fill-rule: evenodd;
      }
    </style>
  </defs>
  <g id="Group_20" data-name="Group 20" transform="translate(0 0)">
    <path id="Path_79" data-name="Path 79" class="cls-1" d="M87.259,100.76c.262-.5.513-.948.726-1.407a.575.575,0,0,1,.635-.345c1.754.05,3.509.1,5.265.121,1.491.015,2.985-.012,4.478-.029,1.682-.02,3.363-.108,5.043-.06a15.448,15.448,0,0,1,6.441,1.5,12.1,12.1,0,0,1,5.492,5.393,13.485,13.485,0,0,1,1.442,4.862,17.1,17.1,0,0,1-.7,7.3,12.977,12.977,0,0,1-5.418,6.9,17.578,17.578,0,0,1-6.5,2.512,40.312,40.312,0,0,1-7.429.324c-2.719.011-5.436-.048-8.155-.079-.475,0-.543-.094-.418-.548l.116-.418c.265-.833.407-.87,1.253-1.01a4.383,4.383,0,0,0,1.683-.639c.285-.189.4-.681.514-1.061a3.918,3.918,0,0,0,.1-1.045q.058-7.955.1-15.905c0-1.339-.026-2.682-.1-4.02a1.818,1.818,0,0,0-1.668-1.8c-.867-.172-1.74-.305-2.612-.458l-.293-.091ZM112.151,113.6c-.118-1.056-.175-2.121-.364-3.162a10.84,10.84,0,0,0-3.465-6.378c-3.1-2.755-6.842-3.179-10.76-2.851-.892.074-1.084.379-1.1,1.3-.022,1.3-.043,2.6-.045,3.9q-.009,6.187,0,12.375c0,1.174.014,2.347.048,3.518a2.688,2.688,0,0,0,1.646,2.677,10.884,10.884,0,0,0,5.738.52,8.95,8.95,0,0,0,6.726-4.99,15.578,15.578,0,0,0,1.573-6.907Zm7.539,14.046a2.674,2.674,0,0,1,.551-1.661c.088-.132.392-.125.6-.167l1.774-.351a1.27,1.27,0,0,0,1.045-1.169,9.316,9.316,0,0,0,.119-1.226c.039-3.247.076-6.494.091-9.741s0-6.5,0-9.755l-.014-.621a1.663,1.663,0,0,0-1.606-1.74l-2.25-.342c-.277-.037-.378-.17-.277-.417a7.551,7.551,0,0,1,.584-1.233c.091-.139.4-.194.607-.189,1.075.015,2.149.1,3.224.094l9.354-.056a10.727,10.727,0,0,1,5.159,1.175,5.6,5.6,0,0,1,3.06,4.411,5.7,5.7,0,0,1-1.872,5.271,15.518,15.518,0,0,1-2.177,1.428l-.238.149c.678.249,1.324.465,1.953.722a6.989,6.989,0,0,1,4.077,3.814,7.349,7.349,0,0,1,.249,4.572,8.185,8.185,0,0,1-4.215,5.224,13.6,13.6,0,0,1-6.266,1.912c-2.059.1-4.128.065-6.192.088l-1.2.006q-2.982-.067-5.968-.149l-.181-.05Zm8.574-9.428h.02c0,1.019-.014,2.038,0,3.057a9.937,9.937,0,0,0,.132,1.973,2.426,2.426,0,0,0,1.713,2.078,10.33,10.33,0,0,0,4.363.192,5.166,5.166,0,0,0,4.074-2.967,7.08,7.08,0,0,0,.477-4.054,5.249,5.249,0,0,0-2.871-4.049,7.767,7.767,0,0,0-3.413-.972c-1.356-.051-2.714-.054-4.071-.1-.381-.011-.434.183-.432.5.008,1.446,0,2.894,0,4.343Zm2.888-6.929c.742-.037,1.581-.048,2.415-.132a3.682,3.682,0,0,0,3.311-2.491,6.612,6.612,0,0,0,.294-2.381,4.649,4.649,0,0,0-3.2-4.535,12.764,12.764,0,0,0-4.727-.516c-.647.017-.937.3-.946.952l-.1,8.5c0,.338.141.483.469.494l2.479.11Z" transform="translate(41.464 49.432)"/>
    <path id="Path_80" data-name="Path 80" class="cls-1" d="M14.062,122.682l-.113,1.462c-1.053,0-2.024-.008-2.995,0-1.829.019-3.657.048-5.488.074l-.177.011c-.262-.031-.737-.031-.749-.108a6.158,6.158,0,0,1-.033-1.342c0-.051.18-.116.283-.141l1.423-.317a1.393,1.393,0,0,0,1.242-1.53c.048-1.033.1-2.067.1-3.1.014-2.542,0-5.082.009-7.624a1.243,1.243,0,0,0-.759-1.279c-.66-.291-1.322-.576-1.99-.845-.316-.127-.726-.2-.689-.621s.435-.545.81-.63c1.552-.355,3.1-.7,4.651-1.078.5-.122.975-.328,1.572-.536a8.242,8.242,0,0,1,.082.935l-.091,1.457a.654.654,0,0,0,.206.475c.074.057.324-.046.447-.142a14.322,14.322,0,0,1,4.319-2.381,5.048,5.048,0,0,1,6.082,2.075c.523.751.525.751,1.251.226a16.224,16.224,0,0,1,4.009-2.231,5.521,5.521,0,0,1,7.392,3.537,10.855,10.855,0,0,1,.557,3.616l-.029,8.2a1.142,1.142,0,0,0,.867,1.273c.723.237,1.473.4,2.287.613l-.189,1.411c-.926,0-1.778-.006-2.629,0-2.081.019-4.162.029-6.242.077-.362.009-.457-.081-.475-.42-.06-1.085-.07-1.084.952-1.329l.344-.088c1-.273,1.332-.579,1.339-1.592.023-2.908.084-5.824-.063-8.725-.153-3.01-2.542-4.613-5.46-3.842a8.043,8.043,0,0,0-2.617,1.26.737.737,0,0,0-.3.756c.082,1.282.133,2.566.144,3.849.019,2.247-.009,4.493,0,6.742,0,.91.314,1.259,1.214,1.469l1.336.308.248.056c.019.427.036.855.015,1.282-.012.268-.22.291-.452.286-1.3-.033-2.6-.076-3.9-.073-1.581,0-3.16.048-4.74.076H16.7c0-.454-.022-.887.015-1.319.008-.1.19-.249.316-.282l1.558-.33a1.147,1.147,0,0,0,1.014-1.174,62.026,62.026,0,0,0,.011-9.337,5.72,5.72,0,0,0-.5-1.773,3.76,3.76,0,0,0-4.662-1.968,8.63,8.63,0,0,0-2.71,1.27,1.232,1.232,0,0,0-.585,1.076q0,4.657.02,9.312l.017,1.2a1.334,1.334,0,0,0,1.2,1.454c.533.121,1.071.2,1.675.314Z" transform="translate(-4.127 52.763)"/>
    <path id="Path_81" data-name="Path 81" class="cls-1" d="M77.818,105.381a2.956,2.956,0,0,1-.622,3.013c-.852.791-1.929.525-2.981.348.1.554.206,1.025.259,1.5a7.026,7.026,0,0,1-4.43,7.679,11.462,11.462,0,0,1-3.905.886,1.428,1.428,0,0,0-1.318,1.113,1.2,1.2,0,0,0,.985,1.3,21.575,21.575,0,0,0,2.533.35c1.818.207,3.656.3,5.452.627a4.6,4.6,0,0,1,3.753,5.588,8.394,8.394,0,0,1-3.792,5.549,12.037,12.037,0,0,1-10.785,1.79,5.858,5.858,0,0,1-4.3-4.467,2.983,2.983,0,0,1,.9-3.036c1.051-.945,2.2-1.787,3.3-2.679l.356-.358-.409-.286a3.951,3.951,0,0,1-2.369-2.529.733.733,0,0,1,.369-.931q.929-.56,1.847-1.138a10.045,10.045,0,0,0,.841-.573c.365-.279.333-.486-.1-.647a6.026,6.026,0,0,1-2.618-1.754,6.613,6.613,0,0,1-1.4-4.811,6.432,6.432,0,0,1,4.057-5.707A10.047,10.047,0,0,1,72.122,106a7.2,7.2,0,0,0,3.389.483,3.388,3.388,0,0,0,2.307-1.1Zm-10.6,19.635c-2.158-.019-2.835.248-4.1,1.538a3.36,3.36,0,0,0,0,4.9,6.127,6.127,0,0,0,3.907,1.771,8.345,8.345,0,0,0,5.04-.765,4.041,4.041,0,0,0,2.148-4.414,3.336,3.336,0,0,0-2.669-2.481,17.2,17.2,0,0,0-4.328-.553Zm-4.24-13.793c.079.6.111,1.206.245,1.793a4.628,4.628,0,0,0,2.519,3.533c1.776.8,4.044.455,4.822-2.038a7.514,7.514,0,0,0-.175-5.069,3.889,3.889,0,0,0-1.409-1.833c-1.542-1.076-4.325-1.219-5.458,1.16a6.112,6.112,0,0,0-.543,2.454Z" transform="translate(25.731 52.78)"/>
    <path id="Path_82" data-name="Path 82" class="cls-1" d="M49.919,105.061a4.322,4.322,0,0,1,.175.867c0,.574-.057,1.149-.09,1.723v.5l.486-.372a12.871,12.871,0,0,1,4.428-2.533,5.574,5.574,0,0,1,6.991,3.8,12.135,12.135,0,0,1,.533,3.578c.031,2.7.05,5.407.077,8.111.009.971.121,1.144,1.039,1.425a11.455,11.455,0,0,0,1.595.355c.3.046.423.163.407.452l0,.266c-.011,1.119-.088,1.171-1.174,1.167-2.6,0-5.195.011-7.793.033-.774.006-.776.029-.853-.735l-.015-.44c.048-.66.063-.653.712-.749a12.286,12.286,0,0,0,1.3-.277.938.938,0,0,0,.708-.87,4.761,4.761,0,0,0,.067-.66c-.037-2.954.011-5.912-.15-8.862a3.785,3.785,0,0,0-4.346-3.645,6.267,6.267,0,0,0-3.207,1.15,1.961,1.961,0,0,0-.765,1.788q.019,4.144.068,8.289c.006.605.023,1.211.081,1.812a1.006,1.006,0,0,0,.935,1.064c.616.136,1.245.215,1.9.325l.056.508c.022,1.185-.1,1.273-1.253,1.268-2.686-.011-5.373.006-8.058.036-.423.006-.6-.127-.591-.539l-.006-.177c-.07-1.067-.039-1.107.971-1.281l.477-.1c1.093-.246,1.373-.537,1.389-1.648.051-3.516.07-7.031.105-10.548a1.089,1.089,0,0,0-.657-1.106c-.66-.291-1.325-.568-1.993-.842-.369-.152-.79-.248-.8-.757-.009-.359.375-.677.9-.783,1.054-.214,2.118-.392,3.16-.653s2.056-.605,3.193-.946Z" transform="translate(17.009 52.717)"/>
    <path id="Path_83" data-name="Path 83" class="cls-1" d="M91.673,114.2c-.05,3.284-.9,5.94-3.225,7.932a10.463,10.463,0,0,1-11.283,1.5,7.684,7.684,0,0,1-3.544-3.65,11.538,11.538,0,0,1-.856-7.727,8.434,8.434,0,0,1,4.585-5.771,10.848,10.848,0,0,1,7.759-1.1,8.486,8.486,0,0,1,6.413,7.226c.088.627.122,1.262.152,1.589Zm-3.99,1.779-.133-.015c0-.31.017-.619,0-.929a10.245,10.245,0,0,0-1.665-5.382,5.612,5.612,0,0,0-4.385-2.564A4.206,4.206,0,0,0,77,110.262a11.84,11.84,0,0,0,1.022,9.328,5.775,5.775,0,0,0,3.188,2.739,4.3,4.3,0,0,0,5.961-3.131c.266-1.05.344-2.148.508-3.222Z" transform="translate(33.343 52.766)"/>
    <path id="Path_84" data-name="Path 84" class="cls-1" d="M47.635,114.454a10.6,10.6,0,0,1-2.069,6.429,9.677,9.677,0,0,1-6.139,3.569,9.149,9.149,0,0,1-7.9-1.884,7.984,7.984,0,0,1-2.346-3.439,11.842,11.842,0,0,1-.516-6.748,8.315,8.315,0,0,1,4.072-5.6,10.782,10.782,0,0,1,8.036-1.449,8.28,8.28,0,0,1,6.6,6.88c.158.734.18,1.493.265,2.239ZM43.6,116.008l-.107-.015v-.443a10.467,10.467,0,0,0-1.773-6.017,5.593,5.593,0,0,0-3.874-2.4,4.3,4.3,0,0,0-5,3.358,12.22,12.22,0,0,0,.65,8.261,6.228,6.228,0,0,0,3.651,3.588,4.3,4.3,0,0,0,5.957-3.149c.257-1.036.334-2.117.494-3.179Z" transform="translate(9.18 52.763)"/>
    <path id="Path_85" data-name="Path 85" class="cls-1" d="M92,33.544a67.615,67.615,0,0,1,3.716,16.909A74.377,74.377,0,0,1,94.5,71.912l-.2.567a9.56,9.56,0,0,0-1.429.014c-3.938.619-7.871,1.26-11.805,1.9-4.068.66-8.138,1.293-12.2,2-1.438.248-3.219-.048-3.8,1.94l-.279.094.2-11.889-.2-28.686,1.9-.325c3.1-.506,6.2-1.022,9.3-1.516q5.551-.88,11.108-1.733c1.635-.251,3.272-.485,4.907-.729Z" transform="translate(29.141 13.532)"/>
    <path id="Path_86" data-name="Path 86" class="cls-1" d="M72.8,113.811c-2-1.719-4.068-3.362-5.983-5.17C56.5,98.917,48.961,87.47,45.246,73.669a56.617,56.617,0,0,1-1.925-11.581,65,65,0,0,1-.181-8.25,96.915,96.915,0,0,1,3.7-21.464l.118-.163a3.444,3.444,0,0,1,.61.831q3.122,9.188,6.2,18.393,9.683,28.919,19.369,57.839a4.6,4.6,0,0,0,.689,1.023L72.8,113.811Z" transform="translate(17.227 12.802)"/>
    <path id="Path_87" data-name="Path 87" class="cls-1" d="M92.431,49.669c-1.637.243-3.273.478-4.907.729q-5.556.859-11.108,1.733c-3.1.492-6.2,1.008-9.3,1.516l-1.9.325-.015-1.236c-.063-1.016-.169-2.032-.183-3.047l-.212-19.439q-.074-6.083-.206-12.164c-.051-2.519-.105-5.04-.218-7.556-.062-1.352-.28-2.7-.367-4.049-.051-.777.017-1.561.034-2.341.966,1.872,1.912,3.758,2.9,5.616,1.569,2.937,4.069,5.1,6.322,7.463A83.294,83.294,0,0,1,92.431,49.669Z" transform="translate(28.709 -2.593)"/>
    <path id="Path_88" data-name="Path 88" class="cls-1" d="M65.094,64.64l.279-.094c.581-1.988,2.361-1.692,3.8-1.94,4.06-.7,8.131-1.336,12.2-2,3.935-.636,7.867-1.277,11.805-1.9A9.56,9.56,0,0,1,94.6,58.7c-.735,2.626-1.315,5.309-2.248,7.863a88.175,88.175,0,0,1-3.7,8.495A58.212,58.212,0,0,1,81.138,86.6c-2.27,2.728-4.8,5.254-7.335,7.745-1.4,1.377-3.053,2.5-4.593,3.738l-.4-.273-1.435-1.226-1.485-3.258a49.006,49.006,0,0,1-1.649-11.638l.028-.663.2-2.871c.067-.98.156-1.959.2-2.939.149-3.524.282-7.051.423-10.579Z" transform="translate(28.841 27.314)"/>
    <path id="Path_89" data-name="Path 89" class="cls-1" d="M73.959,86.627c-.139,3.527-.273,7.056-.423,10.583-.042.982-.13,1.96-.2,2.939l-.9.342c-2.01-5.916-4.021-11.771-5.988-17.639-3.253-9.71-6.466-19.434-9.715-29.147q-3.932-11.757-7.925-23.5a4.048,4.048,0,0,0-.729-.977l5.791-10.648a6.139,6.139,0,0,1,.587,1.041q4.018,11.892,8,23.794,5.175,15.492,10.323,30.99a12.689,12.689,0,0,0,.581,1.256l.793-.923q-.1,5.946-.2,11.889Z" transform="translate(19.976 5.326)"/>
    <path id="Path_90" data-name="Path 90" class="cls-1" d="M49.447,25.458a3.968,3.968,0,0,1,.729.977q3.988,11.741,7.925,23.5c3.249,9.713,6.461,19.437,9.715,29.147C69.782,84.949,71.794,90.8,73.8,96.72l.9-.342-.2,2.871-.184.661c-.314,3.142-.579,6.29-.963,9.425-.192,1.572-.6,3.114-.914,4.668a4.658,4.658,0,0,1-.689-1.023q-9.7-28.914-19.369-57.839-3.082-9.2-6.2-18.394a3.444,3.444,0,0,0-.61-.831l3.871-10.458Z" transform="translate(18.605 9.098)"/>
    <path id="Path_91" data-name="Path 91" class="cls-1" d="M72.1,78.075,71.31,79a12.687,12.687,0,0,1-.581-1.256q-5.17-15.494-10.323-30.99-3.976-11.906-8-23.794a6.139,6.139,0,0,0-.587-1.041l7.161-9.42a3.8,3.8,0,0,1,.664.907q2.982,8.733,5.918,17.48c1.83,5.447,3.633,10.9,5.484,16.339.124.364.556.621.844.931l.015,1.236Z" transform="translate(22.027 1.99)"/>
    <path id="Path_92" data-name="Path 92" class="cls-1" d="M69.352,53.285c-.29-.308-.72-.565-.844-.931-1.85-5.438-3.654-10.891-5.484-16.339q-2.94-8.747-5.918-17.48a3.8,3.8,0,0,0-.664-.907c2.329-2.281,4.585-4.644,7.008-6.819,2.154-1.932,3.885-4,3.965-7.059l.17-.609L68.2,4.686c-.015.78-.085,1.564-.034,2.341.088,1.352.307,2.7.367,4.049.113,2.516.167,5.037.218,7.556q.123,6.081.206,12.164l.212,19.439c.015,1.017.122,2.033.184,3.049Z" transform="translate(24.563 -3.141)"/>
    <path id="Path_93" data-name="Path 93" class="cls-1" d="M63.294,87.638c.311-1.555.722-3.1.914-4.668.384-3.134.649-6.283.963-9.425l.079-.012.077.014a49.005,49.005,0,0,0,1.649,11.638,3.606,3.606,0,0,0-.613.828c-.859,2.425-1.671,4.87-2.535,7.293a3.6,3.6,0,0,1-.68.879l-.884-3.035,1.03-3.512Z" transform="translate(27.756 35.462)"/>
    <path id="Path_94" data-name="Path 94" class="cls-1" d="M62.835,90.059a3.63,3.63,0,0,0,.68-.88c.864-2.423,1.675-4.868,2.535-7.293a3.561,3.561,0,0,1,.613-.828l1.485,3.258a5.764,5.764,0,0,0-.861,1.254l-2.843,8.349c-.118.336-.516.571-.785.855Z" transform="translate(28.069 39.589)"/>
    <path id="Path_95" data-name="Path 95" class="cls-1" d="M63.367,93.619c.268-.283.667-.519.785-.855l2.843-8.349a5.709,5.709,0,0,1,.861-1.254l1.437,1.225a2.524,2.524,0,0,0-.847,2.481L68.009,88.3a2.94,2.94,0,0,0-.584.739c-.993,2.843-1.939,5.7-2.939,8.543a4.066,4.066,0,0,1-.725.962l-.395-4.919Z" transform="translate(28.361 40.742)"/>
    <path id="Path_96" data-name="Path 96" class="cls-1" d="M63.628,96.719a3.984,3.984,0,0,0,.725-.962c1-2.841,1.948-5.7,2.939-8.543a2.968,2.968,0,0,1,.584-.739l-.6,6.559c-.161.186-.393.348-.471.564l-2,5.741a7.4,7.4,0,0,1-.621,1.109c-.187-.245-.522-.482-.537-.735-.059-.994-.017-2-.012-2.995Z" transform="translate(28.494 42.56)"/>
    <path id="Path_97" data-name="Path 97" class="cls-1" d="M63.977,98.127a7.4,7.4,0,0,0,.621-1.109l2-5.741c.077-.217.311-.378.471-.564l.015,4.3-1.442,3.7Z" transform="translate(28.696 44.884)"/>
    <path id="Path_98" data-name="Path 98" class="cls-1" d="M65.055,97.189l1.442-3.7.3,4.373Z" transform="translate(29.287 46.408)"/>
    <path id="Path_99" data-name="Path 99" class="cls-1" d="M66.67,86.433a2.53,2.53,0,0,1,.847-2.481l.4.273L66.67,86.433Z" transform="translate(30.136 41.176)"/>
    <path id="Path_100" data-name="Path 100" class="cls-1" d="M64.3,73.777l-.077-.014-.079.012.184-.661Z" transform="translate(28.786 35.233)"/>
  </g>
</svg>
