<svg xmlns="http://www.w3.org/2000/svg" width="175.654" height="117.125" viewBox="0 0 175.654 117.125">
  <defs>
    <style>
      .cls-1 {
        fill: #e6a766;
      }
    </style>
  </defs>
  <g id="Group_21" data-name="Group 21" transform="translate(0 0)">
    <path id="Path_101" data-name="Path 101" class="cls-1" d="M8.971,50.125a19.891,19.891,0,0,1-2.825-.183v3.542a11.511,11.511,0,0,0,4.143,1q6.291,0,11.586-7.714,6.763-9.99,10.92-32.05H26.354a108.789,108.789,0,0,1-6.111,25.031q.307-2.294-1.5-8.065L13.421,14.716H6.761L14.182,37.4a28.921,28.921,0,0,1,1.683,6.785,5.754,5.754,0,0,1-2.159,4.355,6.983,6.983,0,0,1-4.735,1.588Z" transform="translate(38.836 62.63)"/>
    <path id="Path_102" data-name="Path 102" class="cls-1" d="M19.482,13.293V53.02H38.731V48.146H25.959V13.293Z" transform="translate(123.105 53.639)"/>
    <path id="Path_103" data-name="Path 103" class="cls-1" d="M7.612,21.344h.073L17.931,53.027h5.16l10.32-31.684h.059c1.076,9.917,1.757,20.464,1.976,31.684h6.807Q41.769,35.034,39.12,13.3H31.105L21.247,42.5h-.059l-9.771-29.2H3Q.607,31.824,0,53.02H6.184q.3-17.412,1.427-31.676Z" transform="translate(0 53.639)"/>
    <path id="Path_104" data-name="Path 104" class="cls-1" d="M71.189,32.942q0-19.728-15.772-19.732-7.729,0-12.076,5.013Q38.62,23.7,38.613,34.354c0,6.982,1.391,12.113,4.208,15.37q3.831,4.435,11.586,4.428a18.614,18.614,0,0,0,5.306-.71l9.7,5.548,2.635-4.472h-.022l-7.436-3.594a16.635,16.635,0,0,0,1.874-1.793q4.732-5.456,4.728-16.189ZM55.066,49.226c-3.257,0-5.636-1.2-7.158-3.594l.015-.037c-1.647-2.584-2.466-6.755-2.466-12.471q0-15.007,9.3-15.018c3.242,0,5.636,1.2,7.151,3.594q2.459,3.9,2.459,12.376c0,10.085-3.1,15.15-9.3,15.15ZM31.089,34.171S25.278,30.9,22.4,29.356c-3.162-1.72-4.874-3.755-4.874-6.1a4.9,4.9,0,0,1,1.815-3.769A6.956,6.956,0,0,1,24.129,18a20.166,20.166,0,0,1,7.787,1.654l1.559-3.425A18.618,18.618,0,0,0,23.228,13.29,13.117,13.117,0,0,0,14.3,16.277a9.767,9.767,0,0,0-3.44,7.795c0,3.886,1.537,6.258,4.626,8.461,0,0,5.679,3.191,8.512,4.721,3.059,1.683,4.743,3.7,4.743,6.075a5.4,5.4,0,0,1-2.2,4.421,9.286,9.286,0,0,1-5.731,1.581,19.819,19.819,0,0,1-8.71-2.357L10.369,50.4a20.545,20.545,0,0,0,11.513,3.7c4.252,0,7.612-1.083,10.137-3.242a10.435,10.435,0,0,0,3.777-8.307l.044.022c-.007-3.872-1.581-6.214-4.75-8.4Z" transform="translate(65.521 53.114)"/>
    <path id="Path_105" data-name="Path 105" class="cls-1" d="M30.759,16.008H24.773a101.849,101.849,0,0,1-4.53,15.575q.307-2.294-1.5-8.065l-2.357-7.5H9.857l4.325,13.225a28.921,28.921,0,0,1,1.683,6.785,5.754,5.754,0,0,1-2.159,4.355,6.95,6.95,0,0,1-4.735,1.6,19.889,19.889,0,0,1-2.825-.183v3.542a11.511,11.511,0,0,0,4.143,1q6.291,0,11.586-7.714,5.215-7.729,8.885-22.608Z" transform="translate(38.836 70.794)"/>
    <path id="Path_106" data-name="Path 106" class="cls-1" d="M25.959,16.008H19.482V35.864H38.731V30.99H25.959Z" transform="translate(123.105 70.794)"/>
    <path id="Path_107" data-name="Path 107" class="cls-1" d="M6.843,16.008H1Q.289,25.625,0,35.864H6.184q.176-10.5.659-19.856Zm22.718,0H24.394l-3.147,9.324h-.059l-3.125-9.324h-6.55l6.419,19.864h5.16l6.47-19.864Zm11.593,0H34.538q.7,9.562.908,19.864h6.807q-.253-9.419-1.1-19.864Z" transform="translate(0 70.794)"/>
    <path id="Path_108" data-name="Path 108" class="cls-1" d="M71.182,16.008H64.361v.4q0,15.128-9.3,15.143c-3.257,0-5.636-1.2-7.158-3.594l.015-.037c-1.6-2.5-2.408-6.477-2.466-11.908H38.613c0,.22-.007.439-.007.666,0,6.982,1.391,12.113,4.208,15.37q3.831,4.435,11.586,4.428a18.614,18.614,0,0,0,5.306-.71l9.7,5.548,2.635-4.472h-.022L64.58,33.244a16.636,16.636,0,0,0,1.874-1.793c3.052-3.506,4.626-8.666,4.728-15.443Zm-40.957,0H17.556c1.91,1.069,4.706,2.627,6.441,3.557,3.059,1.683,4.743,3.7,4.743,6.075a5.4,5.4,0,0,1-2.2,4.421,9.286,9.286,0,0,1-5.731,1.581,19.819,19.819,0,0,1-8.71-2.357L10.369,32.71a20.545,20.545,0,0,0,11.513,3.7c4.252,0,7.612-1.083,10.137-3.242a10.435,10.435,0,0,0,3.777-8.307l.044.022c0-3.864-1.574-6.2-4.743-8.387-.007-.007-.337-.19-.871-.49Z" transform="translate(65.521 70.794)"/>
    <path id="Path_109" data-name="Path 109" class="cls-1" d="M18.144,5.788a8.173,8.173,0,0,0-2.013.234v.1h.1A16.141,16.141,0,0,0,17.8,8.079c.4.761.732,1.537,1.127,2.3l.1-.11a2.659,2.659,0,0,0,1.032-2.393l-.586-1L18.151,5.766l-.007.022Z" transform="translate(101.93 6.076)"/>
    <path id="Path_110" data-name="Path 110" class="cls-1" d="M83.876,70.392a23.32,23.32,0,0,0-5.087-4.845c-1.566-1.054-4.991-2.518-5.636-4.282l-.1-.1a20.372,20.372,0,0,0,3.367-.761c1.661-.439,3.184-.337,4.9-.761.776-.19,1.559-.432,2.335-.673v-.439c-.878-.856-1.537-2.027-2.445-2.832a64.788,64.788,0,0,0-8.08-5.906c-1.537-.966-3.484-1.581-5.1-2.4l-1.9-.915a18.279,18.279,0,0,1-2.013-3.689c-1.405-2.642-2.781-5.57-4-8.366a50.293,50.293,0,0,0-2.488-5.482C52.581,20.77,47.114,15.822,38.7,10.977a24.091,24.091,0,0,0-6.265-1.961c-1.222-.059-2.445-.146-3.659-.2a17.57,17.57,0,0,1-2.269-1.691c-2.781-1.72-9.983-5.46-12.032-.512-1.317,3.118,1.954,6.192,3.1,7.78a22.294,22.294,0,0,1,2.488,3.586c.344.842.439,1.691.783,2.562a56.72,56.72,0,0,0,2.54,6.448,21.806,21.806,0,0,0,1.808,2.964c.4.534,1.069.776,1.222,1.632-.688.981-.732,2.4-1.127,3.594-1.757,5.438-1.069,12.164,1.42,16.167.783,1.193,2.649,3.842,5.145,2.825,2.2-.856,1.713-3.594,2.342-5.994l.351-1.347v.11c.688,1.354,1.376,2.635,2.005,3.989A27.58,27.58,0,0,0,42.9,57.365c1.171.856,2.1,2.349,3.564,2.884v-.139h-.11l-1.127-.959a25.97,25.97,0,0,1-2.562-2.869A63.231,63.231,0,0,1,37.2,47.528c-.805-1.508-1.478-3.132-2.122-4.618l-.783-1.749a17.6,17.6,0,0,0-2.342,3.257c-.93,2.064-1.025,4.611-1.376,7.253l-.2.1c-1.566-.373-2.1-1.961-2.686-3.3a20.51,20.51,0,0,1-.439-12.83c.344-1,1.808-4.186,1.222-5.138-.307-.915-1.273-1.442-1.808-2.181a18.169,18.169,0,0,1-1.757-3.067c-1.171-2.686-1.757-5.665-3.03-8.358a24.335,24.335,0,0,0-2.445-3.681,24.358,24.358,0,0,1-2.693-3.74l-.2-1.969.688-.651,3.089.446a25.329,25.329,0,0,1,4.845,2.4c.688.476,1.427,1.391,2.305,1.625h1.025c1.566.337,3.33.1,4.794.527a31.824,31.824,0,0,1,7.041,3.3A43.068,43.068,0,0,1,55.589,31.58c.586,1.105.842,2.122,1.376,3.272,1.025,2.371,2.291,4.757,3.33,7.055a31.123,31.123,0,0,0,3.484,6.448c.732,1,3.674,1.53,4.992,2.049.973.439,2.488.834,3.367,1.354,1.683,1.01,3.323,2.159,4.9,3.264.805.542,3.242,1.742,3.389,2.715a22.7,22.7,0,0,0-9.493,1.354c-.732.285-1.9.285-2.005,1.2l.805,1.537a11.124,11.124,0,0,0,2.532,2.928c1.025.79,2.049,1.552,3.125,2.225,1.9,1.149,4.062,1.83,5.928,2.986,1.061.673,2.144,1.53,3.22,2.247.534.359.878,1,1.566,1.237V73.3l-.768-1.537-1.464-1.369Z" transform="translate(89.545 -4.141)"/>
    <path id="Path_111" data-name="Path 111" class="cls-1" d="M18.157,5.767l-.015.015a8.172,8.172,0,0,0-2.013.234v.1h.1A16.141,16.141,0,0,0,17.8,8.072c.4.761.732,1.537,1.127,2.3l.1-.11a2.659,2.659,0,0,0,1.032-2.393l-.586-1-1.31-1.1Z" transform="translate(101.924 6.082)"/>
    <path id="Path_112" data-name="Path 112" class="cls-1" d="M18.366,4.148A3.858,3.858,0,0,0,14.48,6.614c-1.317,3.118,1.954,6.192,3.1,7.78a22.294,22.294,0,0,1,2.488,3.586c.344.842.439,1.691.783,2.562a56.721,56.721,0,0,0,2.54,6.448,21.8,21.8,0,0,0,1.808,2.964c.4.534,1.069.776,1.222,1.632-.688.981-.732,2.4-1.127,3.594-1.757,5.438-1.069,12.164,1.42,16.167.659,1.01,2.093,3.052,4.025,3.052a2.887,2.887,0,0,0,1.12-.227c2.2-.856,1.713-3.594,2.342-5.994l.351-1.347v.11c.688,1.354,1.376,2.635,2.005,3.989A27.581,27.581,0,0,0,42.9,57.364c1.171.856,2.1,2.349,3.564,2.884v-.139h-.11l-1.127-.959a25.969,25.969,0,0,1-2.562-2.869A63.229,63.229,0,0,1,37.2,47.527c-.805-1.508-1.478-3.132-2.122-4.618l-.79-1.742a17.6,17.6,0,0,0-2.342,3.257c-.93,2.064-1.025,4.611-1.376,7.253l-.2.1c-1.566-.373-2.1-1.961-2.686-3.3a20.51,20.51,0,0,1-.439-12.83c.344-1,1.808-4.186,1.222-5.138-.307-.915-1.273-1.442-1.808-2.181A18.169,18.169,0,0,1,24.9,25.263c-1.171-2.686-1.757-5.665-3.03-8.358a24.335,24.335,0,0,0-2.445-3.681,24.358,24.358,0,0,1-2.693-3.74l-.2-1.969.688-.651,3.089.446a25.329,25.329,0,0,1,4.845,2.4c.688.476,1.427,1.391,2.305,1.625h1.025c1.566.337,3.33.1,4.794.527a31.824,31.824,0,0,1,7.041,3.3,42.832,42.832,0,0,1,6.455,4.94V16.422a62.093,62.093,0,0,0-8.08-5.438,24.091,24.091,0,0,0-6.265-1.961c-1.222-.059-2.445-.146-3.659-.2A17.569,17.569,0,0,1,26.5,7.134c-1.749-1.091-5.27-2.986-8.139-2.986Z" transform="translate(89.551 -4.148)"/>
  </g>
</svg>
