<svg xmlns="http://www.w3.org/2000/svg" width="118.137" height="118.154" viewBox="0 0 118.137 118.154">
  <defs>
    <style>
      .cls-1 {
        fill: #e6a766;
      }
    </style>
  </defs>
  <g id="next-js" transform="translate(0)">
    <path id="Path_19" data-name="Path 19" class="cls-1" d="M55.7.356c-.254.023-1.062.1-1.79.162A59.209,59.209,0,0,0,11.459,25,58.477,58.477,0,0,0,1.031,50.81a45.217,45.217,0,0,0-.531,8.6,45.217,45.217,0,0,0,.531,8.6,59.314,59.314,0,0,0,40.407,47.728,62.452,62.452,0,0,0,12.472,2.587,108.806,108.806,0,0,0,11.317,0,59.639,59.639,0,0,0,21.283-6.224c1.016-.52,1.213-.658,1.074-.774-.092-.069-4.423-5.878-9.62-12.9L68.518,85.674,56.682,68.155C50.168,58.524,44.81,50.648,44.764,50.648s-.092,7.772-.115,17.276c-.035,16.641-.046,17.311-.254,17.7a2.1,2.1,0,0,1-1.016,1.051c-.37.185-.693.219-2.437.219h-2l-.531-.335a2.159,2.159,0,0,1-.774-.843L37.4,85.2l.023-23.154.035-23.166.358-.45a3.168,3.168,0,0,1,.855-.7c.473-.231.658-.254,2.656-.254,2.356,0,2.748.092,3.36.762.173.185,6.582,9.839,14.25,21.468S77.087,87.21,82.238,95l9.354,14.17.473-.312A60.637,60.637,0,0,0,104.2,98.215a58.807,58.807,0,0,0,13.9-30.2,45.219,45.219,0,0,0,.531-8.6,45.219,45.219,0,0,0-.531-8.6A59.314,59.314,0,0,0,77.7,3.082,62.016,62.016,0,0,0,65.4.506C64.292.391,56.658.264,55.7.356Zm24.182,35.73a2.33,2.33,0,0,1,1.166,1.363c.092.3.115,6.721.092,21.191L81.106,79.4l-3.661-5.612-3.672-5.612V53.085c0-9.758.046-15.244.115-15.509a2.356,2.356,0,0,1,1.143-1.455c.473-.243.647-.266,2.46-.266,1.709,0,2.009.023,2.39.231Z" transform="translate(-0.5 -0.325)"/>
    <path id="Path_20" data-name="Path 20" class="cls-1" d="M760.2,943.243c-.4.254-.531.427-.173.231.254-.15.67-.462.6-.474A2.375,2.375,0,0,0,760.2,943.243Zm-.8.52c-.208.162-.208.173.046.046a.708.708,0,0,0,.254-.173C759.7,943.543,759.641,943.566,759.4,943.762Zm-.577.346c-.208.162-.208.173.046.046a.705.705,0,0,0,.254-.173C759.121,943.889,759.063,943.912,758.821,944.109Zm-.577.346c-.208.162-.208.173.046.046a.707.707,0,0,0,.254-.173C758.544,944.236,758.486,944.259,758.243,944.455Zm-.878.462c-.439.231-.416.323.023.1a1.2,1.2,0,0,0,.346-.231C757.735,944.709,757.724,944.721,757.366,944.917Z" transform="translate(-669.681 -834.139)"/>
  </g>
</svg>
