<svg xmlns="http://www.w3.org/2000/svg" width="231.863" height="65.484" viewBox="0 0 231.863 65.484">
  <defs>
    <style>
      .cls-1 {
        fill: #e6a766;
      }
    </style>
  </defs>
  <g id="Group_14" data-name="Group 14" transform="translate(0 0)">
    <path id="Path_46" data-name="Path 46" class="cls-1" d="M123.3,100.987a3.2,3.2,0,0,1-1.609-.433l-5.126-3.033c-.766-.428-.393-.58-.139-.667A10.406,10.406,0,0,0,118.74,95.8a.391.391,0,0,1,.381.029l3.937,2.339a.505.505,0,0,0,.476,0L138.887,89.3a.48.48,0,0,0,.236-.416V71.17a.5.5,0,0,0-.238-.424l-15.348-8.854a.491.491,0,0,0-.474,0l-15.346,8.856a.5.5,0,0,0-.242.422V88.889a.47.47,0,0,0,.242.41l4.205,2.432c2.283,1.139,3.681-.2,3.681-1.553V72.68a.442.442,0,0,1,.445-.441H118a.442.442,0,0,1,.443.441v17.5c0,3.045-1.658,4.792-4.546,4.792a6.574,6.574,0,0,1-3.536-.959l-4.026-2.317a3.243,3.243,0,0,1-1.609-2.8V71.172a3.23,3.23,0,0,1,1.609-2.8L121.686,59.5a3.371,3.371,0,0,1,3.225,0l15.353,8.873a3.24,3.24,0,0,1,1.611,2.8V88.891a3.251,3.251,0,0,1-1.611,2.8l-15.353,8.863a3.194,3.194,0,0,1-1.613.431m4.745-12.208c-6.722,0-8.128-3.085-8.128-5.672a.445.445,0,0,1,.445-.443h1.985a.444.444,0,0,1,.441.375c.3,2.021,1.194,3.041,5.258,3.041,3.232,0,4.61-.731,4.61-2.449,0-.99-.391-1.724-5.416-2.217-4.2-.416-6.8-1.342-6.8-4.706,0-3.1,2.611-4.946,6.987-4.946,4.919,0,7.353,1.708,7.66,5.372a.442.442,0,0,1-.441.482h-1.994a.441.441,0,0,1-.431-.346c-.48-2.128-1.64-2.807-4.8-2.807-3.53,0-3.94,1.232-3.94,2.151,0,1.116.484,1.441,5.252,2.072,4.718.625,6.96,1.507,6.96,4.824,0,3.352-2.787,5.269-7.651,5.269" transform="translate(89.987 -35.846)"/>
    <path id="Path_47" data-name="Path 47" class="cls-1" d="M115.088,76.94a1.971,1.971,0,0,0,.979-1.7V70.684a1.966,1.966,0,0,0-.979-1.7L98.909,59.59a1.967,1.967,0,0,0-1.971,0l-16.28,9.4a1.968,1.968,0,0,0-.983,1.7V89.482a1.968,1.968,0,0,0,.994,1.71l16.178,9.217a1.963,1.963,0,0,0,1.929.012l9.784-5.44a.982.982,0,0,0,.012-1.712l-16.381-9.4a.981.981,0,0,1-.5-.851V77.125a.978.978,0,0,1,.491-.849l5.1-2.94a.977.977,0,0,1,.981,0l5.1,2.94a.98.98,0,0,1,.493.849V81.76a.983.983,0,0,0,1.478.851l9.748-5.672" transform="translate(66.582 -35.628)"/>
    <path id="Path_48" data-name="Path 48" class="cls-1" d="M90.584,68a.385.385,0,0,1,.377,0l3.124,1.8a.38.38,0,0,1,.188.327v3.608a.378.378,0,0,1-.188.327l-3.124,1.8a.376.376,0,0,1-.377,0l-3.122-1.8a.375.375,0,0,1-.19-.327V70.13a.378.378,0,0,1,.19-.327L90.584,68" transform="translate(73.681 -27.569)"/>
    <path id="Path_49" data-name="Path 49" class="cls-1" d="M78.817,95.009a.493.493,0,0,1-.246.426l-5.59,3.223a.486.486,0,0,1-.491,0L66.9,95.434a.493.493,0,0,1-.246-.426V88.552a.5.5,0,0,1,.246-.428L72.49,84.9a.48.48,0,0,1,.493,0l5.592,3.227a.5.5,0,0,1,.244.428v6.457ZM80.328,47.2a.984.984,0,0,0-1.462.859V73.039a.687.687,0,0,1-1.031.6l-4.078-2.35a1.966,1.966,0,0,0-1.963,0l-16.284,9.4a1.969,1.969,0,0,0-.985,1.7v18.8a1.974,1.974,0,0,0,.983,1.7l16.284,9.4a1.964,1.964,0,0,0,1.967,0l16.288-9.4a1.974,1.974,0,0,0,.983-1.7V54.322A1.972,1.972,0,0,0,90.021,52.6L80.328,47.2" transform="translate(43.082 -47.074)"/>
    <path id="Path_50" data-name="Path 50" class="cls-1" d="M46.576,59.535a1.961,1.961,0,0,1,1.965,0l16.284,9.4a1.971,1.971,0,0,1,.983,1.7V89.441a1.971,1.971,0,0,1-.983,1.7l-16.282,9.4a1.974,1.974,0,0,1-1.967,0L30.3,91.145a1.971,1.971,0,0,1-.983-1.7V70.632a1.971,1.971,0,0,1,.983-1.7l16.278-9.4" transform="translate(19.525 -35.678)"/>
    <path id="Path_51" data-name="Path 51" class="cls-1" d="M40.556,70.539a1.96,1.96,0,0,0-.983-1.708L23.3,59.462a1.915,1.915,0,0,0-.9-.257h-.168a1.921,1.921,0,0,0-.9.257L5.052,68.831a1.974,1.974,0,0,0-.985,1.708L4.1,95.763a.965.965,0,0,0,.491.849.943.943,0,0,0,.977,0l9.672-5.54a1.982,1.982,0,0,0,.985-1.706V77.582a1.963,1.963,0,0,1,.981-1.7l4.12-2.372a1.951,1.951,0,0,1,1.963,0l4.116,2.372a1.967,1.967,0,0,1,.985,1.7V89.366a1.986,1.986,0,0,0,.985,1.706l9.672,5.54a.953.953,0,0,0,.983,0,.982.982,0,0,0,.487-.849l.037-25.225" transform="translate(-4.067 -35.739)"/>
  </g>
</svg>
