<svg xmlns="http://www.w3.org/2000/svg" width="111.729" height="111.8" viewBox="0 0 111.729 111.8">
  <defs>
    <style>
      .cls-1 {
        fill: #e6a766;
      }
    </style>
  </defs>
  <g id="Group_9" data-name="Group 9" transform="translate(0 0)">
    <path id="Path_21" data-name="Path 21" class="cls-1" d="M24.994,33.362A10.323,10.323,0,1,1,35.319,23.037,10.333,10.333,0,0,1,24.994,33.362Zm0-13.658a3.34,3.34,0,1,0,3.342,3.338A3.338,3.338,0,0,0,24.994,19.7Z" transform="translate(53.624 46.481)"/>
    <path id="Path_22" data-name="Path 22" class="cls-1" d="M25.581,72.592c-7.327,0-13.83-2.286-18.606-7.062-11.563-11.558-8.486-34.061,7.313-53.51a3.491,3.491,0,1,1,5.418,4.4C6.425,32.773,3.074,51.761,11.914,60.6c10.008,10,32.813,4.106,49.8-12.88A70.878,70.878,0,0,0,72.224,34.4,3.489,3.489,0,1,1,78.2,38.01a77.707,77.707,0,0,1-11.54,14.645C53.711,65.6,38.391,72.592,25.581,72.592Z" transform="translate(-0.002 39.208)"/>
    <path id="Path_23" data-name="Path 23" class="cls-1" d="M14.675,34.579a10.253,10.253,0,0,1-7.3-3.021h0a10.331,10.331,0,0,1,0-14.6,10.577,10.577,0,0,1,14.6,0,10.32,10.32,0,0,1-7.3,17.619Zm0-13.658a3.3,3.3,0,0,0-2.36.978,3.343,3.343,0,0,0,0,4.725h0a3.417,3.417,0,0,0,4.72,0,3.352,3.352,0,0,0,0-4.725A3.3,3.3,0,0,0,14.675,20.921Z" transform="translate(15.912 51.307)"/>
    <path id="Path_24" data-name="Path 24" class="cls-1" d="M10.575,72.474a3.5,3.5,0,0,1-3.389-2.653A77.465,77.465,0,0,1,5,51.3C5,22.535,19.536,0,38.091,0,54.439,0,68.181,18.089,70.76,43.008a3.491,3.491,0,1,1-6.945.717C61.65,22.777,50.589,6.978,38.1,6.978c-14.151,0-26.105,20.3-26.105,44.321A70.652,70.652,0,0,0,13.973,68.14a3.492,3.492,0,0,1-2.551,4.227A3.381,3.381,0,0,1,10.575,72.474Z" transform="translate(18.258 0)"/>
    <g id="Group_8" data-name="Group 8" transform="translate(38.62 32.621)">
      <path id="Path_25" data-name="Path 25" class="cls-1" d="M18.635,27.659a10.38,10.38,0,0,1-3.715-.694,10.282,10.282,0,1,1,3.715.694Zm-.009-13.672a3.358,3.358,0,0,0-1.355.289h0a3.348,3.348,0,1,0,2.556-.061A3.273,3.273,0,0,0,18.625,13.987Zm-2.77-2.9h0Z" transform="translate(-8.299 -7.008)"/>
      <path id="Path_26" data-name="Path 26" class="cls-1" d="M35.816,80.178a71,71,0,0,1-18.476-2.57,3.489,3.489,0,1,1,1.825-6.736c20.333,5.5,39.042.861,43.529-10.809,2.393-6.205.587-13.737-5.074-21.2C51.587,30.914,42.03,24.136,30.7,19.779a70.117,70.117,0,0,0-16.428-4.194,3.491,3.491,0,1,1,.875-6.927,77.117,77.117,0,0,1,18.062,4.6c12.517,4.818,23.159,12.41,29.969,21.381,7.178,9.459,9.319,19.379,6.033,27.93C64.891,73.786,51.964,80.178,35.816,80.178Z" transform="translate(2.39 -1.069)"/>
    </g>
  </g>
</svg>
