<svg xmlns="http://www.w3.org/2000/svg" width="185.325" height="139.053" viewBox="0 0 185.325 139.053">
  <defs>
    <style>
      .cls-1 {
        fill: #e6a766;
      }
    </style>
  </defs>
  <path id="Path_74" data-name="Path 74" class="cls-1" d="M159.535,79.936c.226-.006.492-.012.765-.012a30.3,30.3,0,0,1,13.46,3.129l-.18-.081a22.641,22.641,0,0,1,8.929,7.735l.052.081a15.923,15.923,0,0,1,2.764,9.01c0,.243-.006.487-.017.724v-.035a12.019,12.019,0,0,1-4.044,8.39l-.012.012a12.676,12.676,0,0,1-4.548,2.868l-.087.029q-1.449.29-1.593-.435t1.3-1.593a11.336,11.336,0,0,0,5.2-7.167l.017-.075c.017-.243.029-.527.029-.817a11.111,11.111,0,0,0-1.188-5.012l.029.064a15.855,15.855,0,0,0-5.446-6.339l-.058-.035a26.324,26.324,0,0,0-12.069-4.05l-.093-.006a35.039,35.039,0,0,0-5.052-.353,36.058,36.058,0,0,0-13.153,2.468l.243-.087a18.463,18.463,0,0,1,1.443,6.628v.029a13.771,13.771,0,0,1-6.634,11.53l-.064.035a29.043,29.043,0,0,1-6.032,3.262l-.2.07a10.354,10.354,0,0,1-4.531,1.026c-.191,0-.377-.006-.562-.017h.029q-5.5-1.153-2.607-9.56a21.169,21.169,0,0,1,3.505-6.414l-.035.041a41.219,41.219,0,0,1,6.31-6.611l.064-.052-.568-.846a36.368,36.368,0,0,1-2.816-6.107l-.081-.267q-.869-2.9-1.449-5.5l-.29-2.028-2.9,5.5q-3.766,6.953-7.243,12.162l-.869,1.449a30.077,30.077,0,0,1,2.016,7.967l.012.145c.023.272.035.6.035.921a13.041,13.041,0,0,1-5.493,10.644l-.041.029a52.1,52.1,0,0,1-5.446,2.9l-.348.145a20.08,20.08,0,0,1-6.9,1.593h-.052c-.191.012-.417.023-.643.023a9.393,9.393,0,0,1-4.05-.915l.058.023a3.411,3.411,0,0,1-.863-4.073l-.012.023a98.056,98.056,0,0,1,7.028-8.778l-.075.087,6.374-8.106-1.153-2.607a38.225,38.225,0,0,1-2.526-5.8l-.081-.278q-.869-2.9-1.449-5.5l-.29-2.028-2.9,6.953q-3.471,8.106-6.374,13.9-4.328,8.691-7.243,13.326l-.579.869q-3.471,5.5-6.663,5.5t-4.328-4.056a25.049,25.049,0,0,1-.881-6.646c0-.209,0-.417.006-.626v.029l.579-4.056v.29q-2.318,5.5-4.635,10.134a38.346,38.346,0,0,1-3.262,5.325l.075-.11a6.521,6.521,0,0,1-4.734,2.028h-.046c-.122.012-.261.012-.4.012a5.662,5.662,0,0,1-3.807-1.466l.006.006a17.22,17.22,0,0,1-4.3-7.556l-.029-.122a26.376,26.376,0,0,1-1.495-8.859c0-.411.012-.817.029-1.217v.058a58.122,58.122,0,0,1,2.729-12.863l-.122.411L46.566,96.437v.29a24.809,24.809,0,0,1,2.4,10.719c0,.713-.029,1.42-.087,2.115l.006-.093a31.742,31.742,0,0,1-5.29,16.05l.075-.116A28.913,28.913,0,0,1,30.262,136.77l-.191.07A25.981,25.981,0,0,1,19.5,139.053a26.3,26.3,0,0,1-7-.939l.185.041a7.968,7.968,0,0,1-4.305-3.436l-.017-.035a13.441,13.441,0,0,1-2.335-6.93v-.035a18.475,18.475,0,0,1-.1-1.953,19.039,19.039,0,0,1,1.889-8.3l-.052.116a37.7,37.7,0,0,1,13.419-13.5l.174-.093a100.816,100.816,0,0,1,13.019-7.585l.614-.272,1.449-.869q-2.607-2.028-9.56-6.953A149.776,149.776,0,0,1,10.226,75.445l.145.127A31.6,31.6,0,0,1,.283,59.28l-.046-.22A18.139,18.139,0,0,1,0,56.1a18.615,18.615,0,0,1,2.312-9.01l-.046.1A51.629,51.629,0,0,1,15.521,29.6l.07-.058A95.524,95.524,0,0,1,35.65,15.024l.5-.249A135.321,135.321,0,0,1,58.34,4.653l.985-.3A73.794,73.794,0,0,1,84.217.023h.012C84.634.012,85.115,0,85.6,0a45.465,45.465,0,0,1,20.042,4.624l-.267-.122A19.421,19.421,0,0,1,116.055,16.82l.035.139a25.281,25.281,0,0,1,.753,6.217,26.033,26.033,0,0,1-2.121,10.314l.064-.168a44.525,44.525,0,0,1-10.412,15.337l-.017.017A47.072,47.072,0,0,1,88.609,58.99l-.319.11a59.236,59.236,0,0,1-21.033,4.63l-.11.006a33.317,33.317,0,0,1-3.7.2,34.867,34.867,0,0,1-9.867-1.414l.249.064a20.252,20.252,0,0,1-7.266-4.073l.023.017a13.208,13.208,0,0,1-3.442-4.253l-.035-.075q-.869-2.318-.145-2.752t1.014-.145l1.449,1.449A16.367,16.367,0,0,0,51.1,56.186l.116.035a30.885,30.885,0,0,0,13.17,1.431l-.133.012a57.588,57.588,0,0,0,25.123-9.114l-.214.133A41.4,41.4,0,0,0,103.83,33.965l.1-.2A16.374,16.374,0,0,0,105.609,18.7l.041.11a14.272,14.272,0,0,0-9.763-6.5L95.8,12.3a44.9,44.9,0,0,0-10.574-1.234,46.187,46.187,0,0,0-8.83.846l.29-.046a93.719,93.719,0,0,0-26.572,8.929l.527-.249Q15.023,38.5,13.859,57.327v.284a18.842,18.842,0,0,0,5.226,13.048l-.006-.006A72.319,72.319,0,0,0,31.3,81.506l.226.151a96.538,96.538,0,0,1,11,9.555l.006.012.579.579L61.654,81.668a31.318,31.318,0,0,1,7.579-7.729l.093-.064A15.029,15.029,0,0,1,77.814,70.4l.052-.006c.116-.012.249-.012.388-.012a5.233,5.233,0,0,1,4.815,3.169l.012.035a11.418,11.418,0,0,1,.962,4.63,11.908,11.908,0,0,1-.1,1.512l.006-.058-.562,2.857.869-.579a3.63,3.63,0,0,1,3.645-.423l-.023-.012A2.551,2.551,0,0,1,89.8,83.986a2.5,2.5,0,0,1-.07.591l.006-.017-.869,3.187q-2.607,10.424-3.471,15.059a12.22,12.22,0,0,0-.452,3.349c0,.249.006.492.023.736v-.035q.145,1.738.435,1.738t1.153-1.738l.869-2.028q.29,0,0,.29l3.187-6.663q11.3-24.9,12.162-27.812l1.738-5.5q.29-.579,2.318-1.153a17.736,17.736,0,0,1,4.566-.585c.133,0,.267,0,.394.006h-.017q4.056,0,4.056,2.028l-.29,1.449a50.754,50.754,0,0,0-1.79,6.3l-.064.365a16.5,16.5,0,0,0-.185,2.486,17.06,17.06,0,0,0,.342,3.419l-.017-.11.29,1.153a22.671,22.671,0,0,0,2.665,6.472l-.058-.1q3.471-5.788,6.663-11.872a57.155,57.155,0,0,0,4.5-9.439l.133-.406a45.209,45.209,0,0,1,1.541-5.823l-.093.324q.29-.869,2.474-1.3a23.571,23.571,0,0,1,4.577-.435h.2q4.056,0,4.328,2.028L140.46,61.1a40.985,40.985,0,0,0-1.7,6.692l-.035.261c-.052.562-.087,1.211-.087,1.872a20.736,20.736,0,0,0,.4,4.05l-.023-.133v1.153a23.216,23.216,0,0,0,2.955,6.756l-.058-.093.869,2.028a37.681,37.681,0,0,1,16.542-3.766h.214ZM35.314,121.961a23.2,23.2,0,0,0,5.458-23.032l.046.162-4.635,2.9a67.455,67.455,0,0,0-12.521,9.12l.046-.041a20.421,20.421,0,0,0-5.9,9.7l-.035.145q-1.3,5.36,1.3,6.953a8.838,8.838,0,0,0,7.573-.168l-.052.023a21.639,21.639,0,0,0,8.674-5.783l.017-.017Zm38.8-26.676Q75.566,91.518,77.3,86.3,79.622,79.351,78.9,78.2t-2.752-.29a11.876,11.876,0,0,0-4.039,3.169l-.017.023a40.314,40.314,0,0,0-3.372,5.018l-.1.2a27.362,27.362,0,0,0-2.851,6.466l-.052.2a29.7,29.7,0,0,0-1.767,10.186c0,.492.012.979.035,1.466v-.07q.29,5.788,1.854,6.229t3.621-4.2a41.908,41.908,0,0,0,3.39-8.089l.081-.313q.863-2.051,1.182-2.9Zm32.134,15.354a12.238,12.238,0,0,0,7.237-10.088l.006-.046v-.29l-3.187,4.056-5.788,6.374a.374.374,0,0,0-.145.29.387.387,0,0,0,.139.29q.278.284,1.738-.579Zm24.909-5.5a10.323,10.323,0,0,0,7.532-9.92V95a12.317,12.317,0,0,0-.608-3.279l.023.087a23.384,23.384,0,0,0-5.441,7.109l-.064.133q-2.613,5.209-1.46,6.072Z" transform="translate(0.001)"/>
</svg>
