<svg id="hp-logo-hero_c94026101f" xmlns="http://www.w3.org/2000/svg" width="133.617" height="134.505" viewBox="0 0 133.617 134.505">
  <defs>
    <style>
      .cls-1 {
        fill: #e6a766;
      }
    </style>
  </defs>
  <path id="Path_75" data-name="Path 75" class="cls-1" d="M341.328,0V44.879h44.523V89.757h44.522V0Z" transform="translate(-296.806)"/>
  <path id="Path_76" data-name="Path 76" class="cls-1" d="M387.349,343.725H343v44.966h44.349Z" transform="translate(-298.26 -298.89)"/>
  <path id="Path_77" data-name="Path 77" class="cls-1" d="M44.523,44.879H0L44.523,0Z"/>
  <path id="Path_78" data-name="Path 78" class="cls-1" d="M682.367,732.292V687.457h44.61Z" transform="translate(-593.36 -597.786)"/>
  <circle id="Ellipse_2" data-name="Ellipse 2" class="cls-1" cx="0.234" cy="0.234" r="0.234" transform="translate(47.397 40.81)"/>
  <circle id="Ellipse_3" data-name="Ellipse 3" class="cls-1" cx="0.234" cy="0.234" r="0.234" transform="translate(48.615 40.81)"/>
  <circle id="Ellipse_4" data-name="Ellipse 4" class="cls-1" cx="0.234" cy="0.234" r="0.234" transform="translate(49.833 40.81)"/>
  <circle id="Ellipse_5" data-name="Ellipse 5" class="cls-1" cx="0.234" cy="0.234" r="0.234" transform="translate(51.052 40.81)"/>
  <circle id="Ellipse_6" data-name="Ellipse 6" class="cls-1" cx="0.234" cy="0.234" r="0.234" transform="translate(52.27 40.81)"/>
  <circle id="Ellipse_7" data-name="Ellipse 7" class="cls-1" cx="0.234" cy="0.234" r="0.234" transform="translate(53.489 40.81)"/>
  <circle id="Ellipse_8" data-name="Ellipse 8" class="cls-1" cx="0.234" cy="0.234" r="0.234" transform="translate(54.707 40.81)"/>
  <circle id="Ellipse_9" data-name="Ellipse 9" class="cls-1" cx="0.234" cy="0.234" r="0.234" transform="translate(55.925 40.81)"/>
  <circle id="Ellipse_10" data-name="Ellipse 10" class="cls-1" cx="0.234" cy="0.234" r="0.234" transform="translate(57.144 40.81)"/>
  <circle id="Ellipse_11" data-name="Ellipse 11" class="cls-1" cx="0.234" cy="0.234" r="0.234" transform="translate(58.362 40.81)"/>
  <circle id="Ellipse_12" data-name="Ellipse 12" class="cls-1" cx="0.234" cy="0.234" r="0.234" transform="translate(59.581 40.81)"/>
  <circle id="Ellipse_13" data-name="Ellipse 13" class="cls-1" cx="0.234" cy="0.234" r="0.234" transform="translate(47.397 39.685)"/>
  <circle id="Ellipse_14" data-name="Ellipse 14" class="cls-1" cx="0.234" cy="0.234" r="0.234" transform="translate(48.615 39.685)"/>
  <circle id="Ellipse_15" data-name="Ellipse 15" class="cls-1" cx="0.234" cy="0.234" r="0.234" transform="translate(49.833 39.685)"/>
  <circle id="Ellipse_16" data-name="Ellipse 16" class="cls-1" cx="0.234" cy="0.234" r="0.234" transform="translate(51.052 39.685)"/>
  <circle id="Ellipse_17" data-name="Ellipse 17" class="cls-1" cx="0.234" cy="0.234" r="0.234" transform="translate(52.27 39.685)"/>
  <circle id="Ellipse_18" data-name="Ellipse 18" class="cls-1" cx="0.234" cy="0.234" r="0.234" transform="translate(53.489 39.685)"/>
  <circle id="Ellipse_19" data-name="Ellipse 19" class="cls-1" cx="0.234" cy="0.234" r="0.234" transform="translate(54.707 39.685)"/>
  <circle id="Ellipse_20" data-name="Ellipse 20" class="cls-1" cx="0.234" cy="0.234" r="0.234" transform="translate(55.925 39.685)"/>
  <circle id="Ellipse_21" data-name="Ellipse 21" class="cls-1" cx="0.234" cy="0.234" r="0.234" transform="translate(47.397 38.56)"/>
  <circle id="Ellipse_22" data-name="Ellipse 22" class="cls-1" cx="0.234" cy="0.234" r="0.234" transform="translate(48.615 38.56)"/>
  <circle id="Ellipse_23" data-name="Ellipse 23" class="cls-1" cx="0.234" cy="0.234" r="0.234" transform="translate(49.833 38.56)"/>
  <circle id="Ellipse_24" data-name="Ellipse 24" class="cls-1" cx="0.234" cy="0.234" r="0.234" transform="translate(51.052 38.56)"/>
  <circle id="Ellipse_25" data-name="Ellipse 25" class="cls-1" cx="0.234" cy="0.234" r="0.234" transform="translate(52.27 38.56)"/>
  <circle id="Ellipse_26" data-name="Ellipse 26" class="cls-1" cx="0.234" cy="0.234" r="0.234" transform="translate(47.397 37.436)"/>
  <circle id="Ellipse_27" data-name="Ellipse 27" class="cls-1" cx="0.234" cy="0.234" r="0.234" transform="translate(48.615 37.436)"/>
  <circle id="Ellipse_28" data-name="Ellipse 28" class="cls-1" cx="0.234" cy="0.234" r="0.234" transform="translate(49.833 37.436)"/>
  <circle id="Ellipse_29" data-name="Ellipse 29" class="cls-1" cx="0.234" cy="0.234" r="0.234" transform="translate(93.181 83.089)"/>
  <circle id="Ellipse_30" data-name="Ellipse 30" class="cls-1" cx="0.234" cy="0.234" r="0.234" transform="translate(94.399 83.089)"/>
  <circle id="Ellipse_31" data-name="Ellipse 31" class="cls-1" cx="0.234" cy="0.234" r="0.234" transform="translate(95.617 83.089)"/>
  <circle id="Ellipse_32" data-name="Ellipse 32" class="cls-1" cx="0.234" cy="0.234" r="0.234" transform="translate(96.836 83.089)"/>
  <circle id="Ellipse_33" data-name="Ellipse 33" class="cls-1" cx="0.234" cy="0.234" r="0.234" transform="translate(98.054 83.089)"/>
  <circle id="Ellipse_34" data-name="Ellipse 34" class="cls-1" cx="0.234" cy="0.234" r="0.234" transform="translate(99.273 83.089)"/>
  <circle id="Ellipse_35" data-name="Ellipse 35" class="cls-1" cx="0.234" cy="0.234" r="0.234" transform="translate(100.491 83.089)"/>
  <circle id="Ellipse_36" data-name="Ellipse 36" class="cls-1" cx="0.234" cy="0.234" r="0.234" transform="translate(93.181 84.214)"/>
  <circle id="Ellipse_37" data-name="Ellipse 37" class="cls-1" cx="0.234" cy="0.234" r="0.234" transform="translate(94.399 84.214)"/>
  <circle id="Ellipse_38" data-name="Ellipse 38" class="cls-1" cx="0.234" cy="0.234" r="0.234" transform="translate(95.617 84.214)"/>
  <circle id="Ellipse_39" data-name="Ellipse 39" class="cls-1" cx="0.234" cy="0.234" r="0.234" transform="translate(96.836 84.214)"/>
  <circle id="Ellipse_40" data-name="Ellipse 40" class="cls-1" cx="0.234" cy="0.234" r="0.234" transform="translate(98.054 84.214)"/>
  <circle id="Ellipse_41" data-name="Ellipse 41" class="cls-1" cx="0.234" cy="0.234" r="0.234" transform="translate(99.273 84.214)"/>
  <circle id="Ellipse_42" data-name="Ellipse 42" class="cls-1" cx="0.234" cy="0.234" r="0.234" transform="translate(93.181 85.338)"/>
  <circle id="Ellipse_43" data-name="Ellipse 43" class="cls-1" cx="0.234" cy="0.234" r="0.234" transform="translate(94.399 85.338)"/>
  <circle id="Ellipse_44" data-name="Ellipse 44" class="cls-1" cx="0.234" cy="0.234" r="0.234" transform="translate(95.617 85.338)"/>
  <circle id="Ellipse_45" data-name="Ellipse 45" class="cls-1" cx="0.234" cy="0.234" r="0.234" transform="translate(96.836 85.338)"/>
  <circle id="Ellipse_46" data-name="Ellipse 46" class="cls-1" cx="0.234" cy="0.234" r="0.234" transform="translate(98.054 85.338)"/>
  <circle id="Ellipse_47" data-name="Ellipse 47" class="cls-1" cx="0.234" cy="0.234" r="0.234" transform="translate(93.181 86.463)"/>
  <circle id="Ellipse_48" data-name="Ellipse 48" class="cls-1" cx="0.234" cy="0.234" r="0.234" transform="translate(94.399 86.463)"/>
  <circle id="Ellipse_49" data-name="Ellipse 49" class="cls-1" cx="0.234" cy="0.234" r="0.234" transform="translate(95.617 86.463)"/>
</svg>
