<svg xmlns="http://www.w3.org/2000/svg" width="326.532" height="73.905" viewBox="0 0 326.532 73.905">
  <defs>
    <style>
      .cls-1 {
        fill: #e6a766;
      }
    </style>
  </defs>
  <path id="vercel-inc-logo-vector" class="cls-1" d="M31.885,225.4c-12.735,0-21.932,8.327-21.932,20.789s10.34,20.789,23.075,20.789c7.728,0,14.476-3.048,18.721-8.163L42.933,253.7a13.187,13.187,0,0,1-9.85,4.027c-5.551,0-10.231-2.884-11.973-7.51H53.491a19.449,19.449,0,0,0,.381-4.027c-.054-12.517-9.2-20.789-21.986-20.789ZM20.946,242.111c1.469-4.626,5.388-7.51,10.939-7.51s9.469,2.884,10.939,7.51ZM156.24,225.4c-12.735,0-21.932,8.327-21.932,20.789s10.34,20.789,23.075,20.789c7.728,0,14.476-3.048,18.721-8.163l-8.816-5.116a13.187,13.187,0,0,1-9.85,4.027c-5.551,0-10.231-2.884-11.973-7.51h32.381a19.449,19.449,0,0,0,.381-4.027c0-12.517-9.2-20.789-21.987-20.789Zm-10.884,16.708c1.469-4.626,5.388-7.51,10.939-7.51s9.469,2.884,10.939,7.51Zm-45.061,4.082c0,6.912,4.517,11.537,11.537,11.537,4.735,0,8.327-2.177,10.177-5.66l8.871,5.116c-3.646,6.1-10.558,9.8-19.048,9.8-12.789,0-21.932-8.327-21.932-20.789S99.1,225.4,111.831,225.4c8.49,0,15.347,3.7,19.048,9.8l-8.871,5.116c-1.85-3.537-5.388-5.66-10.177-5.66C104.811,234.6,100.294,239.227,100.294,246.193Zm95.239-33.524v53.116H185.138V212.669ZM-88.333,206.9l42.667,73.905H-131Zm106.722,5.769-32,55.456-32-55.456h12.027l20.027,34.667L6.47,212.669Zm68.028,13.878v11.211a13.505,13.505,0,0,0-3.7-.544c-6.694,0-11.537,4.626-11.537,11.538v17.089H60.783V226.546H71.178v10.612C71.178,231.281,77.981,226.546,86.416,226.546Z" transform="translate(131 -206.9)"/>
</svg>
